<?xml version="1.0" encoding="UTF-8" standalone="no"?>
<svg
   viewBox="0 0 25 25"
   version="1.1"
   id="svg103"
   sodipodi:docname="profile-pic.svg"
   inkscape:version="1.2.2 (732a01da63, 2022-12-09, custom)"
   width="25"
   height="25"
   xml:space="preserve"
   xmlns:inkscape="http://www.inkscape.org/namespaces/inkscape"
   xmlns:sodipodi="http://sodipodi.sourceforge.net/DTD/sodipodi-0.dtd"
   xmlns="http://www.w3.org/2000/svg"
   xmlns:svg="http://www.w3.org/2000/svg"><defs
     id="defs107" /><sodipodi:namedview
     id="namedview105"
     pagecolor="#ffffff"
     bordercolor="#000000"
     borderopacity="0.25"
     inkscape:showpageshadow="2"
     inkscape:pageopacity="0.0"
     inkscape:pagecheckerboard="0"
     inkscape:deskcolor="#d1d1d1"
     showgrid="false"
     inkscape:zoom="25.043365"
     inkscape:cx="5.6901299"
     inkscape:cy="12.238771"
     inkscape:window-width="1878"
     inkscape:window-height="1016"
     inkscape:window-x="42"
     inkscape:window-y="27"
     inkscape:window-maximized="1"
     inkscape:current-layer="svg103" /><text
     xml:space="preserve"
     style="font-size:96px;fill:#000000;stroke:#800080;stroke-width:1.49291"
     x="2.2902267"
     y="11.259292"
     id="text435"><tspan
       sodipodi:role="line"
       id="tspan433" /></text><path
     style="fill:#000000;stroke-width:0.0488281"
     d="m 13.573376,21.683872 c 1.731251,-0.206105 3.230576,-0.826673 4.628784,-1.915848 0.797284,-0.621066 1.014568,-1.241217 0.81119,-2.315213 -0.148686,-0.785182 -0.524084,-1.52055 -1.064231,-2.084725 -0.545535,-0.569802 -1.216181,-0.967586 -2.007879,-1.190941 -0.386514,-0.109044 -0.422737,-0.110204 -3.442382,-0.110204 -3.0196454,0 -3.0558685,0.0012 -3.4423832,0.110204 -1.3896425,0.392049 -2.4681782,1.378492 -2.9093505,2.660932 -0.1803184,0.524166 -0.2584541,1.046139 -0.2244585,1.49946 0.052258,0.696851 0.3891762,1.135576 1.4004106,1.823577 1.8274517,1.24332 4.0497406,1.784735 6.2502996,1.522758 z m -0.339661,-9.720778 c 1.366438,-0.259209 2.532584,-1.188915 3.062379,-2.441473 0.444985,-1.052043 0.431107,-2.3307979 -0.03613,-3.3293145 -0.707435,-1.5118353 -2.102124,-2.4028614 -3.761106,-2.4028614 -1.699365,0 -3.1214046,0.935328 -3.7966712,2.4972106 -0.4385997,1.0144731 -0.4305542,2.2542827 0.021277,3.2788559 0.4182158,0.9483474 1.2670796,1.7748824 2.2245312,2.1660184 0.702013,0.286785 1.544619,0.372148 2.28572,0.231564 z"
     id="path2704"
     sodipodi:nodetypes="sssssscssssssssssss" /></svg>
